<?xml version="1.0" standalone="no"?>
<!DOCTYPE svg PUBLIC "-//W3C//DTD SVG 20010904//EN"
 "http://www.w3.org/TR/2001/REC-SVG-20010904/DTD/svg10.dtd">
<svg version="1.0" xmlns="http://www.w3.org/2000/svg"
 width="320.000000pt" height="240.000000pt" viewBox="0 0 320.000000 240.000000"
 preserveAspectRatio="xMidYMid meet">
<metadata>
Created by potrace 1.15, written by Peter Selinger 2001-2017
</metadata>
<g transform="translate(0.000000,240.000000) scale(0.100000,-0.100000)"
fill="#000000" stroke="none">
<path d="M845 2357 c-197 -111 -247 -623 -123 -1267 18 -98 36 -153 26 -84 -3
23 0 30 14 31 10 1 18 -2 18 -6 0 -5 9 -11 20 -14 11 -3 18 -1 15 3 -5 7 21 7
104 -2 3 0 8 1 11 2 3 1 12 3 20 5 8 1 20 4 25 5 23 5 36 -1 29 -12 -6 -10 -5
-10 8 -1 8 7 19 9 23 5 5 -4 5 2 2 13 -5 13 1 9 15 -10 42 -57 169 -182 203
-201 23 -12 33 -24 30 -34 -3 -10 8 -28 26 -46 17 -16 39 -44 51 -61 11 -18
24 -33 29 -33 4 0 16 15 24 33 l16 32 -25 -30 c-14 -16 -26 -25 -26 -18 0 6
-12 25 -26 42 -17 21 -21 31 -12 31 15 0 98 122 98 143 0 7 -26 30 -56 52 -50
35 -54 40 -33 43 13 2 29 11 36 20 12 16 13 16 7 0 -5 -13 -1 -18 14 -18 15 0
19 5 15 20 -3 11 -2 28 2 37 5 10 8 20 7 23 0 3 12 6 26 7 l27 1 -27 -14 c-30
-15 -37 -44 -15 -62 7 -6 32 -11 55 -10 36 0 42 3 38 17 -5 13 -4 13 8 -1 17
-23 23 -23 29 -1 4 17 5 17 6 1 1 -14 10 -18 35 -18 19 0 37 6 39 13 4 10 6
10 6 0 1 -7 9 -13 19 -13 11 0 17 9 19 27 0 16 -2 21 -7 13 -5 -7 -10 -8 -14
-2 -3 5 1 13 10 16 22 8 20 9 34 -24 14 -35 26 -38 35 -10 4 11 11 18 16 15 5
-3 6 1 3 9 -4 9 -1 16 6 16 8 0 11 -11 8 -30 l-5 -30 62 0 62 0 -5 29 c-2 16
1 32 7 35 6 4 11 3 11 -2 0 -11 49 -3 70 11 8 6 -1 -6 -20 -27 -19 -21 -60
-55 -90 -76 -89 -61 -89 -59 -38 -139 23 -39 49 -70 56 -71 8 0 2 -15 -15 -41
l-26 -40 -20 30 c-24 39 -32 40 -12 2 18 -36 37 -49 43 -31 3 8 25 36 50 62
25 26 45 57 46 67 1 11 22 34 51 53 45 31 140 132 188 198 10 14 16 21 14 15
-3 -5 5 -19 16 -30 19 -19 20 -19 13 -1 -5 16 -4 17 9 6 11 -9 15 -9 15 -1 0
14 48 12 68 -2 7 -6 12 -5 12 2 0 6 9 11 21 11 11 0 18 -4 15 -8 -8 -13 28
-11 36 2 12 17 61 -15 68 -44 7 -30 29 66 60 260 66 422 49 791 -47 986 -27
55 -96 127 -131 136 -9 3 -73 -8 -142 -23 -232 -53 -388 -71 -595 -72 -104 0
-235 5 -290 12 -85 11 -396 71 -444 86 -9 2 -34 -6 -56 -18z m1010 -137 c123
-14 185 -29 185 -46 0 -8 3 -13 8 -12 13 5 102 -34 102 -44 0 -10 -39 -78 -45
-78 -9 0 -108 49 -99 49 6 1 16 12 22 26 17 37 14 45 -4 12 -14 -25 -20 -28
-48 -23 -176 33 -580 33 -713 0 -23 -6 -28 0 -47 62 -6 20 -1 23 45 34 115 28
428 38 594 20z m-954 -19 c18 -15 23 -28 23 -60 -1 -41 -1 -41 36 -41 43 0 55
-16 40 -56 -6 -14 -10 -26 -10 -28 0 -2 122 2 130 4 3 1 10 3 15 4 6 0 21 7
33 14 13 8 26 11 30 8 3 -3 0 -6 -6 -6 -7 0 -11 -5 -9 -11 1 -7 -31 -19 -79
-30 -45 -10 -112 -30 -149 -44 -62 -23 -68 -24 -97 -9 -39 20 -67 84 -68 152
0 102 52 151 111 103z m1524 -5 c64 -64 27 -229 -58 -260 -11 -3 -33 1 -50 9
-36 16 -202 65 -222 65 -7 0 -15 7 -19 15 -5 13 -2 14 15 4 17 -9 23 -8 30 2
6 10 9 11 9 2 0 -18 41 -26 72 -14 20 7 29 6 42 -7 16 -16 17 -15 7 11 -6 16
-11 39 -11 51 0 21 4 23 44 19 l44 -5 -5 41 c-5 34 -2 46 17 66 29 31 54 32
85 1z m-670 -261 c127 -30 254 -105 350 -207 33 -34 63 -63 67 -63 3 0 10 -4
15 -9 5 -5 2 -6 -6 -1 -9 5 -12 3 -9 -6 3 -8 10 -13 16 -12 38 9 -36 -49 -108
-85 -3 -1 -48 40 -100 91 -65 64 -115 103 -158 125 -212 105 -422 46 -610
-172 l-33 -38 -64 28 c-36 15 -65 30 -65 34 0 3 24 35 54 71 163 199 427 298
651 244z m497 -385 c30 -111 30 -272 0 -367 -42 -135 -169 -290 -305 -371
l-67 -41 -35 52 c-19 28 -35 55 -35 58 0 4 29 26 65 49 36 24 86 66 111 94 45
50 104 141 104 161 0 6 -13 -12 -28 -40 l-27 -50 -140 -6 c-77 -3 -261 -5
-410 -5 l-270 1 -32 60 c-36 67 -45 68 -12 2 39 -77 103 -149 181 -204 43 -30
78 -58 78 -62 0 -6 -55 -98 -65 -109 -2 -2 -16 5 -32 16 -15 10 -54 35 -85 55
-31 20 -86 70 -121 111 -115 136 -157 242 -157 401 0 122 45 325 72 325 6 0 7
-8 3 -17 -15 -38 -9 -48 45 -75 30 -15 54 -33 53 -40 -2 -7 -9 -42 -18 -78 -8
-36 -14 -83 -13 -105 1 -37 2 -37 5 -7 2 17 7 32 11 32 4 0 81 7 172 15 91 8
170 15 176 15 7 0 14 8 16 18 5 16 35 21 276 41 l270 24 36 -23 c41 -25 39
-16 38 -135 -1 -64 2 -81 7 -60 14 50 12 147 -4 208 -8 32 -15 59 -15 60 0 2
25 16 55 32 54 29 64 46 46 75 -6 8 -7 19 -3 24 8 13 29 -39 54 -134z"/>
<path d="M1558 442 l-38 -3 0 -73 c0 -40 5 -87 11 -105 21 -60 106 -80 156
-37 26 23 28 29 31 120 l4 96 -34 1 c-18 0 -46 1 -63 2 -16 1 -47 1 -67 -1z"/>
<path d="M1260 380 c0 -20 -4 -40 -10 -45 -6 -7 19 -8 68 -4 42 3 79 4 81 3 7
-5 -19 -95 -40 -140 -12 -24 -40 -65 -62 -91 -23 -26 -35 -44 -27 -41 22 8
200 56 231 62 18 4 30 16 41 43 14 37 14 38 -14 62 -24 19 -28 30 -27 65 1 22
-2 50 -6 60 -6 14 -5 17 3 12 7 -4 12 -2 12 3 0 14 -17 14 -25 0 -5 -8 -52 -8
-81 1 -1 0 -4 9 -7 19 -4 16 -16 20 -71 23 l-66 3 0 -35z"/>
<path d="M1912 412 c-61 -3 -63 -4 -69 -33 -3 -17 -9 -26 -12 -21 -3 5 -17 9
-31 8 -14 -1 -30 2 -37 6 -12 10 -29 -42 -24 -76 5 -35 -10 -66 -39 -81 -24
-12 -60 -59 -60 -78 0 -3 28 -8 61 -11 51 -6 174 -34 266 -62 18 -5 14 2 -16
34 -22 22 -50 65 -65 94 -27 56 -48 136 -37 141 3 2 39 1 79 -2 71 -6 81 -4
63 15 -5 5 -11 23 -13 39 l-3 30 -63 -3z"/>
</g>
</svg>
